<svg width="63" height="69" viewBox="0 0 63 69" fill="none" xmlns="http://www.w3.org/2000/svg">
<g clip-path="url(#clip0)">
<path d="M32.5341 24.8762C36.0069 14.9671 42.8268 13.6485 42.8268 13.6485C42.8268 13.6485 47.3316 18.936 43.8588 28.845L35.5903 52.4381C35.3919 53.0043 34.8821 53.2495 34.3159 53.0511L24.8786 49.7437C24.3124 49.5452 24.0672 49.0355 24.2657 48.4692L32.5341 24.8762Z" stroke="#455A64" stroke-width="2" stroke-linecap="round" stroke-linejoin="round"/>
<path d="M29.8882 32.4259C29.8882 32.4259 20.2548 35.7255 17.7081 42.9921L17.3774 43.9359C17.1789 44.5021 17.4241 45.0119 17.9903 45.2103L24.5964 47.5255" stroke="#455A64" stroke-width="2" stroke-linecap="round" stroke-linejoin="round"/>
<path d="M41.2129 36.3949C41.2129 36.3949 46.679 44.9863 44.1323 52.2529L43.8016 53.1966C43.6031 53.7629 43.0934 54.0081 42.5271 53.8096L35.9211 51.4945" stroke="#455A64" stroke-width="2" stroke-linecap="round" stroke-linejoin="round"/>
<path d="M33.2354 41.0165L29.928 50.4537" stroke="#455A64" stroke-width="2" stroke-linecap="round" stroke-linejoin="round"/>
<path d="M19.4985 49.9774L18.1756 53.7523" stroke="#455A64" stroke-width="2" stroke-linecap="round" stroke-linejoin="round"/>
<path d="M38.373 56.5923L37.05 60.3672" stroke="#455A64" stroke-width="2" stroke-linecap="round" stroke-linejoin="round"/>
<path d="M24.4994 53.8494L22.515 59.5117" stroke="#455A64" stroke-width="2" stroke-linecap="round" stroke-linejoin="round"/>
<path d="M32.0491 56.4952L30.0647 62.1576" stroke="#455A64" stroke-width="2" stroke-linecap="round" stroke-linejoin="round"/>
<path d="M53.1107 23.6104C55.7168 24.5238 58.5697 23.1516 59.483 20.5455C60.3964 17.9395 59.0242 15.0865 56.4181 14.1732C53.8121 13.2599 50.9591 14.6321 50.0458 17.2381C49.1325 19.8442 50.5047 22.6971 53.1107 23.6104Z" stroke="#455A64" stroke-width="2" stroke-linecap="round" stroke-linejoin="round"/>
<path d="M11.199 34.3532C12.7626 34.9011 14.4744 34.0778 15.0224 32.5142C15.5704 30.9506 14.7471 29.2388 13.1835 28.6908C11.6199 28.1428 9.90806 28.9662 9.36008 30.5298C8.81209 32.0934 9.63542 33.8052 11.199 34.3532Z" stroke="#455A64" stroke-width="2" stroke-linecap="round" stroke-linejoin="round"/>
<path d="M37.6319 22.4243C39.1 21.5613 40.7987 22.1566 41.4068 23.7472" stroke="#455A64" stroke-width="2" stroke-linecap="round" stroke-linejoin="round"/>
</g>
<defs>
<clipPath id="clip0">
<rect width="46" height="56" fill="white" transform="translate(19) rotate(19.3136)"/>
</clipPath>
</defs>
</svg>
