<svg width="60" height="48" viewBox="0 0 60 48" fill="none" xmlns="http://www.w3.org/2000/svg">
<g clip-path="url(#clip0)">
<path d="M27.8 46.2C26.7 47.3 24.9 47.3 23.8 46.2C22.7 45.1 22.7 43.3 23.8 42.2L25.1 40.9C26.2 39.8 28 39.8 29.1 40.9C30.2 42 30.2 43.8 29.1 44.9L27.8 46.2Z" stroke="#455A64" stroke-width="2" stroke-linecap="round" stroke-linejoin="round"/>
<path d="M21.8 44.2C20.7 45.3 18.9 45.3 17.8 44.2C16.7 43.1 16.7 41.3 17.8 40.2L21.1 36.9C22.2 35.8 24 35.8 25.1 36.9C26.2 38 26.2 39.8 25.1 40.9L21.8 44.2Z" stroke="#455A64" stroke-width="2" stroke-linecap="round" stroke-linejoin="round"/>
<path d="M17.8 40.2C16.7 41.3 14.9 41.3 13.8 40.2C12.7 39.1 12.7 37.3 13.8 36.2L17.1 32.9C18.2 31.8 20 31.8 21.1 32.9C22.2 34 22.2 35.8 21.1 36.9L17.8 40.2Z" stroke="#455A64" stroke-width="2" stroke-linecap="round" stroke-linejoin="round"/>
<path d="M14.8 35.2C13.7 36.3 11.9 36.3 10.8 35.2C9.69998 34.1 9.69998 32.3 10.8 31.2L13.1 28.9C14.2 27.8 16 27.8 17.1 28.9C18.2 30 18.2 31.8 17.1 32.9L14.8 35.2Z" stroke="#455A64" stroke-width="2" stroke-linecap="round" stroke-linejoin="round"/>
<path d="M33 39L38.2 44.2C39.3 45.3 41.1 45.3 42.2 44.2C43.3 43.1 43.3 41.3 42.2 40.2" stroke="#455A64" stroke-width="2" stroke-linecap="round" stroke-linejoin="round"/>
<path d="M37 35L42.2 40.2C43.3 41.3 45.1 41.3 46.2 40.2C47.3 39.1 47.3 37.3 46.2 36.2L45.2 35.2" stroke="#455A64" stroke-width="2" stroke-linecap="round" stroke-linejoin="round"/>
<path d="M46.5 28.5L52 23" stroke="#455A64" stroke-width="2" stroke-linecap="round" stroke-linejoin="round"/>
<path d="M29.8 43.7999L32.2 46.2C33.3 47.3 35.1 47.3 36.2 46.2C37.3 45.1 37.3 43.3 36.2 42.2" stroke="#455A64" stroke-width="2" stroke-linecap="round" stroke-linejoin="round"/>
<path d="M52 1L41 12L54 25L59 20" stroke="#455A64" stroke-width="2" stroke-linecap="round" stroke-linejoin="round"/>
<path d="M8 1L19 12L6 25L1 20" stroke="#455A64" stroke-width="2" stroke-linecap="round" stroke-linejoin="round"/>
<path d="M8 23L13.5 28.5" stroke="#455A64" stroke-width="2" stroke-linecap="round" stroke-linejoin="round"/>
<path d="M18 13H28" stroke="#455A64" stroke-width="2" stroke-linecap="round" stroke-linejoin="round"/>
<path d="M42 13H28L20.5 20.5C19.1 21.9 19.1 24.1 20.5 25.5C21.9 26.9 24.1 26.9 25.5 25.5L28.8 22.2C32 19 37 19 40.2 22.2L49.2 31.2C50.3 32.3 50.3 34.1 49.2 35.2C48.1 36.3 46.3 36.3 45.2 35.2L41 31" stroke="#455A64" stroke-width="2" stroke-linecap="round" stroke-linejoin="round"/>
<path d="M6 19C6.55228 19 7 18.5523 7 18C7 17.4477 6.55228 17 6 17C5.44772 17 5 17.4477 5 18C5 18.5523 5.44772 19 6 19Z" stroke="#455A64" stroke-width="2" stroke-linecap="round" stroke-linejoin="round"/>
<path d="M54 19C54.5523 19 55 18.5523 55 18C55 17.4477 54.5523 17 54 17C53.4477 17 53 17.4477 53 18C53 18.5523 53.4477 19 54 19Z" stroke="#455A64" stroke-width="2" stroke-linecap="round" stroke-linejoin="round"/>
</g>
<defs>
<clipPath id="clip0">
<rect width="60" height="48" fill="white"/>
</clipPath>
</defs>
</svg>
